<svg xmlns="http://www.w3.org/2000/svg" width="48" height="48" viewBox="0 0 48 48" fill="none"><path d="M6.68407 15.5877C5.85804 15.5877 5.15718 15.8757 4.58106 16.4518C4.00494 17.028 3.7168 17.7193 3.7168 18.5262V30.9149C3.7168 31.7419 4.00486 32.4422 4.58106 33.0184C5.15718 33.5945 5.85804 33.8827 6.68407 33.8827C7.5095 33.8827 8.20611 33.5946 8.7733 33.0184C9.33936 32.4423 9.62318 31.7419 9.62318 30.9149V18.5262C9.62318 17.7192 9.33512 17.028 8.75891 16.4518C8.18271 15.8757 7.49095 15.5877 6.68407 15.5877ZM30.54 4.46632L32.5856 0.692686C32.7199 0.442855 32.6721 0.251278 32.4419 0.116568C32.192 0.000407916 32 0.059268 31.8658 0.288987L29.7915 4.09279C27.9664 3.28582 26.0359 2.8816 24.0003 2.8816C21.9642 2.8816 20.0336 3.28591 18.2091 4.09279L16.1348 0.288987C16 0.059268 15.808 0.000928041 15.5587 0.116568C15.3279 0.251885 15.2802 0.442855 15.415 0.692686L17.4607 4.46632C15.3863 5.52415 13.7343 6.99739 12.5051 8.88923C11.2759 10.7821 10.661 12.8506 10.661 15.0984H37.3106C37.3106 12.8511 36.6957 10.7826 35.4666 8.88923C34.2373 6.99739 32.5947 5.52415 30.54 4.46632ZM18.7131 9.95513C18.4919 10.1769 18.2277 10.2872 17.9205 10.2872C17.6128 10.2872 17.354 10.1769 17.1428 9.95513C16.9316 9.73443 16.826 9.47125 16.826 9.16308C16.826 8.85595 16.9316 8.59225 17.1428 8.37102C17.354 8.15032 17.6134 8.03997 17.9205 8.03997C18.2277 8.03997 18.4919 8.15032 18.7131 8.37102C18.9338 8.59277 19.0447 8.85595 19.0447 9.16308C19.0441 9.47073 18.9333 9.73443 18.7131 9.95513ZM30.8567 9.95513C30.6451 10.1769 30.3856 10.2872 30.079 10.2872C29.7712 10.2872 29.507 10.1769 29.2863 9.95513C29.0651 9.73443 28.9548 9.47125 28.9548 9.16308C28.9548 8.85595 29.0651 8.59225 29.2863 8.37102C29.507 8.15032 29.7712 8.03997 30.079 8.03997C30.3861 8.03997 30.645 8.15032 30.8567 8.37102C31.068 8.59277 31.1734 8.85595 31.1734 9.16308C31.1734 9.47073 31.0679 9.73443 30.8567 9.95513ZM10.7754 35.323C10.7754 36.2073 11.0825 36.956 11.6969 37.5703C12.3118 38.1847 13.0604 38.4918 13.9441 38.4918H16.0763L16.1055 45.0326C16.1055 45.8586 16.3936 46.5599 16.9697 47.1361C17.5458 47.7123 18.2376 48.0004 19.044 48.0004C19.8695 48.0004 20.5708 47.7123 21.147 47.1361C21.7232 46.5599 22.0113 45.8586 22.0113 45.0326V38.4924H25.9871V45.0326C25.9871 45.8586 26.275 46.5599 26.8512 47.1361C27.4274 47.7123 28.1281 48.0004 28.9542 48.0004C29.7798 48.0004 30.4811 47.7123 31.0573 47.1361C31.6335 46.5599 31.9214 45.8586 31.9214 45.0326V38.4924H34.0824C34.9465 38.4924 35.6855 38.1852 36.301 37.5708C36.9153 36.9565 37.2226 36.2079 37.2226 35.3236V16.1346H10.7754V35.323ZM41.3154 15.5877C40.5084 15.5877 39.8172 15.8715 39.241 16.4375C38.6649 17.0046 38.3768 17.7013 38.3768 18.5262V30.9149C38.3768 31.7419 38.6648 32.4422 39.241 33.0184C39.8172 33.5946 40.5089 33.8827 41.3154 33.8827C42.1409 33.8827 42.8422 33.5946 43.4184 33.0184C43.9946 32.4422 44.2826 31.7419 44.2826 30.9149V18.5262C44.2826 17.7012 43.9946 17.0046 43.4184 16.4375C42.8422 15.8715 42.1409 15.5877 41.3154 15.5877Z" fill="#000000"></path></svg>