<svg xmlns="http://www.w3.org/2000/svg" width="48" height="48" viewBox="0 0 48 48" fill="none"><path d="M23.4301 11.6133C26.0811 11.6133 28.4066 10.578 30.4068 8.50771C32.4069 6.43738 33.407 4.0297 33.407 1.28506C33.407 0.983616 33.3832 0.555264 33.3356 0C32.9864 0.047616 32.7245 0.087168 32.5498 0.11904C30.1052 0.468096 27.9542 1.66598 26.0968 3.71251C24.2396 5.75904 23.3109 7.94861 23.3109 10.2806C23.3111 10.5502 23.3507 10.9945 23.4301 11.6133ZM32.9307 48C34.8198 48 36.9072 46.7071 39.1932 44.121C41.4791 41.535 43.2252 38.4968 44.4317 35.0064C39.9393 32.6901 37.6931 29.3664 37.6931 25.0351C37.6931 21.4178 39.5107 18.3241 43.1459 15.754C40.6218 12.5967 37.2883 11.0181 33.1452 11.0181C31.3989 11.0181 29.8036 11.2798 28.3592 11.8034L27.4543 12.1365L26.2399 12.6125C25.4461 12.9139 24.7238 13.0646 24.073 13.0646C23.5649 13.0646 22.8983 12.8901 22.0729 12.5411L21.1442 12.1603L20.2633 11.8034C18.9775 11.2641 17.5964 10.9943 16.1201 10.9943C12.1674 10.9943 8.9927 12.327 6.59558 14.9923C4.19846 17.6579 3 21.172 3 25.5348C3 31.6746 4.92077 37.3465 8.7623 42.5503C11.4292 46.1835 13.8659 48 16.0723 48C17.0089 48 17.9376 47.8176 18.8582 47.4526L20.025 46.9766L20.9537 46.6435C22.2553 46.1835 23.454 45.9535 24.5491 45.9535C25.708 45.9535 27.0415 46.247 28.5494 46.834L29.2875 47.1195C30.8273 47.7064 32.0417 48 32.9307 48Z" fill="#000000"></path></svg>