<svg xmlns="http://www.w3.org/2000/svg" width="48" height="48" viewBox="0 0 48 48" fill="none"><path d="M13.8545 19.707C15.9601 19.707 17.667 18.0001 17.667 15.8945C17.667 13.7889 15.9601 12.082 13.8545 12.082C11.7489 12.082 10.042 13.7889 10.042 15.8945C10.042 18.0001 11.7489 19.707 13.8545 19.707Z" fill="#000000"></path><path d="M33.8747 3.75H27.6038C27.458 3.75 27.333 3.85417 27.333 4V43.9583C27.333 44.125 27.458 44.25 27.6247 44.25H33.8747C39.6038 44.25 44.2497 39.6042 44.2497 33.875V14.125C44.2497 8.39583 39.6038 3.75 33.8747 3.75ZM35.3538 30.125C33.083 30.125 31.2497 28.2917 31.2497 26.0208C31.2497 23.7708 33.083 21.9375 35.3538 21.9375C37.6038 21.9375 39.4372 23.7708 39.4372 26.0208C39.4372 28.2917 37.6038 30.125 35.3538 30.125Z" fill="#000000"></path><path d="M22.9792 3.75H14.125C8.39583 3.75 3.75 8.39583 3.75 14.125V33.875C3.75 39.6042 8.39583 44.25 14.125 44.25H22.9792C23.1458 44.25 23.2917 44.125 23.2917 43.9583V4.04167C23.2917 3.875 23.1458 3.75 22.9792 3.75ZM20.0208 41H14.125C12.2292 41 10.4375 40.25 9.10417 38.8958C7.75 37.5625 7 35.7708 7 33.875V14.125C7 12.2292 7.75 10.4375 9.10417 9.10417C10.4375 7.75 12.2292 7.02083 14.125 7.02083H20.0208V41Z" fill="#000000"></path></svg>