<svg xmlns="http://www.w3.org/2000/svg" width="48" height="48" viewBox="0 0 48 48" fill="none"><path d="M17.9385 6V40.5633L25.7656 43.0438V14.0609C25.7656 12.6965 26.3733 11.7878 27.3521 12.1004C28.6288 12.454 28.8772 13.7132 28.8772 15.063V26.6386C33.7476 28.9964 37.5837 26.6357 37.5837 20.4155C37.5837 14.0579 35.3341 11.2269 28.7194 8.95088C26.1074 8.08315 21.2721 6.61647 17.9385 6Z" fill="#000000"></path><path d="M27.2539 37.9895L39.8229 33.5164C41.2458 32.9905 41.462 32.2747 40.3108 31.8978C39.1422 31.5151 37.0561 31.6232 35.6186 32.1403L27.2539 35.0912V30.3815L27.7331 30.2237C27.7331 30.2237 30.1551 29.3647 33.5589 28.9966C36.9567 28.6226 41.126 29.0463 44.4041 30.2792C48.0941 31.4508 48.509 33.1629 47.5741 34.352C46.6275 35.5294 44.331 36.3826 44.331 36.3826L27.2539 42.518" fill="#000000"></path><path d="M3.60249 37.5128C-0.181063 36.4581 -0.812142 34.2318 0.91456 32.9433C2.50687 31.7688 5.21817 30.8836 5.21817 30.8836L16.4286 26.8867V31.4357L8.36772 34.3253C6.93903 34.8366 6.72575 35.5553 7.87688 35.9293C9.04847 36.3208 11.1258 36.2156 12.5515 35.6897L16.4257 34.2931V38.3542C16.1773 38.3951 15.8968 38.439 15.6456 38.4799C11.7831 39.1226 7.66652 38.8597 3.60249 37.5128Z" fill="#000000"></path><path d="M45.5776 40.6857C45.5776 40.7997 45.5513 40.8756 45.4929 40.9136C45.4257 40.9604 45.3351 40.9837 45.2241 40.9837H44.6631V40.4111H45.2591C45.3438 40.4111 45.4052 40.4257 45.4578 40.4461C45.5367 40.4812 45.5776 40.563 45.5776 40.6857ZM45.9837 42.0005C45.9545 41.9917 45.934 41.9654 45.9194 41.9157C45.9106 41.8778 45.9077 41.8281 45.9048 41.7609L45.896 41.5009C45.8931 41.3811 45.8697 41.2876 45.8172 41.2321C45.7909 41.1882 45.747 41.159 45.7061 41.1298C45.7616 41.0801 45.8142 41.0275 45.8581 40.9691C45.9077 40.8873 45.9369 40.7792 45.9369 40.6623C45.9369 40.4228 45.8347 40.2533 45.6331 40.1598C45.5338 40.116 45.4023 40.0897 45.2474 40.0897H44.2979V42.1319H44.6602V41.2993H45.2124C45.3146 41.2993 45.3847 41.3139 45.4344 41.3285C45.5016 41.3723 45.5396 41.4366 45.5454 41.5505L45.563 41.869C45.5688 41.9508 45.5747 42.0005 45.5776 42.0355L45.6039 42.1056L45.6126 42.129H46.01V42.0122M43.5558 41.1561C43.5558 40.7383 43.7106 40.3556 43.997 40.0722C44.2891 39.7829 44.6777 39.6251 45.0838 39.6251C45.4899 39.6251 45.8697 39.7829 46.1531 40.0722C46.4395 40.3556 46.5972 40.7383 46.5972 41.1561C46.5972 41.9917 45.9165 42.6695 45.0838 42.6695C44.6777 42.6695 44.2891 42.5147 43.997 42.2284C43.7106 41.942 43.5558 41.5622 43.5558 41.1561ZM45.0838 42.9821C45.5717 42.9821 46.0275 42.7893 46.3723 42.4475C46.7141 42.0998 46.9069 41.644 46.9069 41.1561C46.9069 40.6623 46.7141 40.2007 46.3723 39.8589C46.0275 39.5083 45.5717 39.3242 45.0838 39.3242C44.0671 39.3242 43.2461 40.1423 43.2461 41.159C43.2461 41.6499 43.436 42.1027 43.7778 42.4504C44.1255 42.7893 44.5959 42.9821 45.0838 42.9821Z" fill="#000000"></path></svg>