<svg xmlns="http://www.w3.org/2000/svg" width="48" height="48" viewBox="0 0 48 48" fill="none"><path d="M23.5907 3.75C13.1316 3.75 4.56363 11.9525 3.75 22.3757L14.421 26.8632C15.3528 26.2131 16.4594 25.8655 17.5926 25.8669C17.6985 25.8669 17.8032 25.8699 17.9063 25.8757L22.6524 18.8785V18.7806C22.6524 14.5703 26.0202 11.144 30.1603 11.144C34.3002 11.144 37.6681 14.5703 37.6681 18.7806C37.6681 22.9907 34.3002 26.4184 30.1603 26.4184C30.1029 26.4184 30.047 26.417 29.9898 26.4156L23.221 31.3261C23.2253 31.4172 23.2281 31.5081 23.2281 31.5976C23.2281 34.7595 20.6998 37.3311 17.5926 37.3311C14.8651 37.3311 12.583 35.3502 12.0674 32.7282L4.43476 29.5183C6.79848 38.0183 14.4768 44.25 23.5907 44.25C34.5868 44.25 43.5 35.1827 43.5 24C43.5 12.816 34.5868 3.75 23.5907 3.75ZM16.2265 34.4759L13.7811 33.4481C14.2139 34.3662 14.9645 35.1343 15.9601 35.5561C18.1117 36.4685 20.5928 35.4304 21.4897 33.2401C21.9239 32.1869 21.9264 31.0032 21.4968 29.9481C21.067 28.8855 20.2548 28.0566 19.2134 27.6148C18.1777 27.1774 17.0689 27.1932 16.0947 27.5673L18.6218 28.6299C20.209 29.3028 20.9596 31.1566 20.2978 32.7709C19.6374 34.385 17.8137 35.1489 16.2265 34.4759ZM35.1632 18.7806C35.1632 15.9753 32.9184 13.6912 30.1608 13.6912C27.4017 13.6912 25.1569 15.9753 25.1569 18.7806C25.1569 21.586 27.4017 23.8687 30.1608 23.8687C32.9184 23.8687 35.1632 21.586 35.1632 18.7806ZM26.4104 18.772C26.4104 16.6611 28.0936 14.9502 30.1681 14.9502C32.2438 14.9502 33.9269 16.6611 33.9269 18.772C33.9269 20.8828 32.2438 22.5938 30.1679 22.5938C28.0936 22.5938 26.4103 20.8828 26.4103 18.7721L26.4104 18.772Z" fill="#000000"></path></svg>