<svg xmlns="http://www.w3.org/2000/svg" width="48" height="48" viewBox="0 0 48 48" fill="none"><path d="M9.79289 9.57272L9.7737 9.58978V9.59191C5.91375 13.3918 3.74362 18.5829 3.75002 23.9989C3.74415 28.4315 5.1989 32.7421 7.8893 36.2643C7.91702 36.2984 7.95967 36.3176 7.99805 36.2984C8.0343 36.2771 8.03643 36.2323 8.0215 36.1939C6.47773 31.4207 14.3688 19.8515 18.4462 15.0015C18.459 14.9845 18.4761 14.9653 18.4761 14.9418C18.4761 14.9141 18.4569 14.8928 18.4377 14.8757C11.5792 8.05041 9.74812 9.6111 9.7737 9.58978M38.2092 9.57272L38.2284 9.58978V9.59191C42.0878 13.3918 44.2574 18.5834 44.25 23.9989C44.2558 28.431 42.8011 32.7421 40.1107 36.2643C40.0851 36.2984 40.0403 36.3176 40.0019 36.2984C39.9678 36.2771 39.9657 36.2323 39.9785 36.1939C41.5223 31.4207 33.6376 19.843 29.5623 14.9909C29.5474 14.9738 29.5325 14.9546 29.5325 14.9333C29.5325 14.9035 29.5495 14.8821 29.5708 14.8651C36.4309 8.03922 38.2497 9.61056 38.2263 9.58924M24.0008 3.75C28.0868 3.75 31.4488 4.86988 34.5492 6.7136C34.5876 6.73278 34.5982 6.77543 34.5833 6.8138C34.5684 6.85005 34.5257 6.85858 34.4852 6.84792C30.5656 6.00041 24.6058 9.38776 24.0434 9.72623C24.0307 9.73476 24.0179 9.74329 24.0008 9.74329C23.9816 9.74329 23.9688 9.73476 23.956 9.72623C22.4613 8.86807 16.9531 5.98123 13.4844 6.86924C13.446 6.87777 13.4034 6.87137 13.3863 6.83299C13.3714 6.79568 13.3858 6.75304 13.4204 6.73278C16.5213 4.86988 19.9255 3.75 24.0008 3.75ZM24.0008 19.9901C24.0243 19.9901 24.0498 20.0093 24.0648 20.0221C30.1247 24.6295 40.4961 36.0196 37.3297 39.2407L37.3339 39.2364L37.3318 39.2407H37.3275C33.6419 42.4756 28.9029 44.2564 23.9987 44.25C19.0939 44.2558 14.3549 42.475 10.6677 39.2407C7.50816 36.0196 17.8774 24.629 23.9304 20.0221C23.9475 20.0093 23.9752 19.9901 24.0008 19.9901Z" fill="#000000"></path></svg>