<svg xmlns="http://www.w3.org/2000/svg" width="32" height="32"><path d="M2.213 2.421c-.37.09-.78.324-1.074.614a2.295 2.295 0 0 0-.617.938l-.122.32-.015 7.627c-.01 4.961.003 7.784.039 8.076.073.603.28 1.036.692 1.448.568.569 1.119.74 2.391.742l.653.001v2.584c0 2.775.002 2.799.274 2.94.355.183.24.28 3.245-2.724l2.802-2.8h4.975l.023.946c.019.833.037.984.144 1.251.243.602.781 1.123 1.431 1.386.305.123.311.123 3.266.138l2.96.016 1.84 1.837c1.95 1.947 1.997 1.984 2.336 1.843.32-.132.331-.2.331-2.026V25.92h.802c.986 0 1.412-.085 1.848-.368.669-.435 1.043-1.034 1.14-1.827.035-.288.049-1.864.039-4.316l-.017-3.862-.139-.358c-.248-.639-.694-1.104-1.358-1.414-.303-.142-.354-.148-1.315-.166l-1-.019V9.02c0-4.985.003-4.918-.306-5.446a2.746 2.746 0 0 0-.876-.892c-.599-.359.289-.336-12.523-.331-8.913.004-11.664.02-11.869.07m23.746 1.113c.24.132.509.411.631.658.099.2.104.381.118 4.807l.014 4.598-4.708.015-4.707.015-.294.119c-.595.243-1.161.804-1.394 1.382l-.126.312-.015 2.84-.016 2.84h-5.406l-2.415 2.413-2.414 2.412-.001-2.212c0-2.106-.005-2.221-.105-2.385-.057-.094-.159-.184-.226-.198-.067-.015-.626-.034-1.242-.043-.995-.015-1.146-.029-1.36-.127a1.474 1.474 0 0 1-.7-.685c-.093-.205-.097-.577-.098-8.043-.001-6.524.011-7.858.072-8.004.115-.276.408-.574.699-.71l.267-.124 11.627.013c11.002.012 11.636.018 11.799.107M6.422 8.004c-.519.152-.502.866.025 1.008.146.039 2.542.052 7.788.042l7.576-.014.165-.164c.18-.18.221-.417.109-.627-.157-.292.322-.275-7.898-.285-4.386-.005-7.67.012-7.765.04m-.162 3.824c-.274.222-.292.581-.042.817l.137.128 3.903.014c3.637.013 3.915.008 4.089-.08.255-.128.351-.34.272-.602-.118-.394.137-.372-4.284-.37-3.673.001-3.97.007-4.075.093m23.474 2.964c.291.136.584.433.699.709.06.144.074.913.074 4.247v4.071l-.138.277c-.076.153-.226.35-.334.439-.33.273-.591.318-1.845.32-.984.001-1.137.012-1.237.093-.219.177-.233.276-.233 1.621v1.297l-1.494-1.493-1.493-1.493-3.107-.027c-3.05-.026-3.11-.028-3.32-.141a1.517 1.517 0 0 1-.631-.631c-.115-.214-.115-.221-.115-4.322v-4.108l.134-.26c.152-.296.425-.539.726-.646.171-.061 1.231-.074 6.127-.075l5.92-.002.267.124m-23.367.726c-.17.07-.34.317-.34.495 0 .108.056.214.181.339l.181.181h6.036l.168-.15a.507.507 0 0 0 .026-.748l-.141-.142-2.999-.01c-1.65-.006-3.05.01-3.112.035m17.489 4.067-1.296 1.293-.547-.543c-.602-.599-.759-.69-1.03-.601-.22.073-.343.258-.343.516 0 .187.054.254.842 1.041.833.834.844.842 1.078.842h.236l1.508-1.505c1.017-1.014 1.528-1.561 1.566-1.678.112-.338-.155-.657-.55-.657-.149 0-.32.152-1.464 1.292" fill-rule="evenodd"></path></svg>