<svg xmlns="http://www.w3.org/2000/svg" width="32" height="32" viewBox="0 0 32 32"><path d="M19.52 6.757c-0.207 0.071-0.805 0.647-4.39 4.223-2.37 2.364-4.212 4.243-4.294 4.38-0.121 0.203-0.143 0.301-0.143 0.64s0.022 0.437 0.143 0.64c0.181 0.302 8.324 8.436 8.57 8.559 0.608 0.304 1.396 0.060 1.75-0.543 0.13-0.22 0.151-0.312 0.15-0.656-0.001-0.283-0.030-0.455-0.099-0.587-0.054-0.102-1.721-1.812-3.705-3.8l-3.608-3.613 3.608-3.613c1.984-1.988 3.651-3.698 3.705-3.8 0.069-0.132 0.098-0.304 0.099-0.587 0.001-0.34-0.021-0.437-0.143-0.645-0.238-0.41-0.675-0.681-1.176-0.681-0.168 0-0.328 0.030-0.477 0.086l0.009-0.003z"></path></svg>