<svg xmlns="http://www.w3.org/2000/svg" width="32" height="32" viewBox="0 0 32 32"><path d="M11.56 6.748c-0.295 0.108-0.56 0.331-0.723 0.607-0.122 0.208-0.144 0.305-0.143 0.645 0.001 0.283 0.030 0.455 0.099 0.587 0.054 0.102 1.721 1.812 3.705 3.8l3.608 3.613-3.608 3.613c-1.984 1.988-3.651 3.698-3.705 3.8-0.069 0.132-0.098 0.304-0.099 0.587-0.001 0.344 0.020 0.436 0.15 0.656 0.174 0.296 0.493 0.546 0.804 0.63 0.27 0.073 0.707 0.033 0.946-0.087 0.246-0.123 8.389-8.257 8.57-8.559 0.121-0.203 0.143-0.301 0.143-0.64s-0.022-0.437-0.143-0.64c-0.082-0.137-1.923-2.015-4.294-4.38-3.781-3.771-4.173-4.147-4.413-4.226-0.136-0.050-0.293-0.080-0.457-0.080-0.158 0-0.309 0.027-0.449 0.076l0.009-0.003z"></path></svg>