<svg xmlns="http://www.w3.org/2000/svg" width="32" height="32" viewBox="0 0 32 32"><path d="M15.52 10.757c-0.207 0.071-0.805 0.647-4.39 4.223-2.37 2.364-4.212 4.243-4.294 4.38-0.121 0.203-0.143 0.301-0.143 0.64 0 0.343 0.022 0.437 0.151 0.656 0.174 0.296 0.493 0.546 0.804 0.63 0.27 0.073 0.707 0.033 0.946-0.087 0.099-0.049 1.805-1.713 3.793-3.697l3.613-3.608 3.613 3.608c1.988 1.984 3.694 3.648 3.793 3.697 0.607 0.304 1.396 0.060 1.75-0.543 0.129-0.219 0.151-0.313 0.151-0.656 0-0.339-0.022-0.437-0.143-0.64-0.082-0.137-1.923-2.015-4.294-4.38-3.781-3.771-4.173-4.147-4.413-4.226-0.138-0.050-0.298-0.079-0.464-0.079-0.17 0-0.332 0.030-0.482 0.085l0.010-0.003z"></path></svg>