<svg xmlns="http://www.w3.org/2000/svg" width="32" height="32" viewBox="0 0 32 32"><path d="M7.56 10.748c-0.295 0.108-0.56 0.331-0.723 0.607-0.122 0.208-0.144 0.305-0.143 0.645 0.001 0.283 0.030 0.455 0.099 0.587 0.134 0.256 8.265 8.397 8.567 8.577 0.204 0.121 0.3 0.143 0.64 0.142 0.283-0.001 0.455-0.030 0.587-0.099 0.256-0.134 8.397-8.265 8.577-8.567 0.121-0.203 0.143-0.301 0.143-0.64s-0.022-0.438-0.144-0.645c-0.339-0.576-0.979-0.814-1.62-0.601-0.239 0.079-0.596 0.419-3.903 3.718l-3.64 3.632-3.64-3.632c-3.307-3.299-3.664-3.639-3.903-3.718-0.136-0.050-0.293-0.080-0.457-0.080-0.158 0-0.309 0.027-0.449 0.076l0.009-0.003z"></path></svg>