<svg xmlns="http://www.w3.org/2000/svg" width="32" height="32" viewBox="0 0 32 32"><path d="M2.32 0.929c-0.869 0.215-1.667 1.001-2.040 2.008l-0.147 0.396-0.015 9.467c-0.018 10.518-0.041 9.794 0.338 10.591 0.203 0.426 0.734 1.037 1.131 1.3 0.138 0.092 0.42 0.22 0.626 0.285 0.359 0.113 0.456 0.117 2.48 0.117 1.955 0 2.117-0.007 2.251-0.097 0.138-0.095 0.227-0.252 0.227-0.43 0-0.072-0.015-0.141-0.042-0.204l0.001 0.003c-0.043-0.101-0.113-0.184-0.201-0.243l-0.002-0.001c-0.093-0.047-0.699-0.069-2.208-0.080l-2.080-0.014-0.304-0.15c-0.343-0.168-0.721-0.555-0.897-0.918-0.272-0.562-0.264-0.379-0.265-6.759l-0.001-5.96h27.36v6.546l-0.363 0.026c-0.389 0.027-0.551 0.102-0.868 0.399l-0.19 0.179-0.37-0.167c-0.152-0.073-0.362-0.161-0.576-0.241l-0.059-0.019-0.267-0.093-0.031-0.342c-0.047-0.527-0.282-0.899-0.716-1.133-0.196-0.106-0.291-0.115-1.173-0.115-1.081 0-1.141 0.016-1.523 0.409-0.231 0.239-0.37 0.609-0.37 0.987 0 0.149-0.024 0.231-0.067 0.232-0.037 0-0.316 0.108-0.62 0.24l-0.553 0.239-0.204-0.184c-0.329-0.297-0.513-0.37-0.93-0.37-0.505 0-0.674 0.099-1.371 0.803-0.621 0.628-0.735 0.823-0.735 1.256 0 0.42 0.083 0.644 0.346 0.936 0.13 0.145 0.224 0.277 0.209 0.293-0.078 0.153-0.166 0.354-0.245 0.558l-0.016 0.049-0.233 0.579-0.375 0.034c-0.428 0.039-0.657 0.156-0.93 0.476-0.257 0.3-0.303 0.516-0.303 1.429v0.807h-3.985l-0.135 0.135c-0.311 0.311-0.151 0.811 0.287 0.899 0.092 0.018 1.359 0.033 2.816 0.033h2.649l0.1 0.28c0.055 0.154 0.168 0.434 0.252 0.623l0.153 0.342-0.213 0.218c-0.345 0.352-0.459 0.835-0.313 1.331 0.049 0.165 0.211 0.37 0.651 0.822 0.694 0.712 0.84 0.812 1.246 0.848 0.416 0.038 0.701-0.051 1.033-0.322l0.279-0.229 0.537 0.223c0.295 0.123 0.578 0.238 0.63 0.256 0.074 0.025 0.093 0.094 0.094 0.34 0.002 0.377 0.127 0.665 0.406 0.932 0.341 0.326 0.49 0.363 1.471 0.361 0.974-0.001 1.147-0.045 1.478-0.376 0.232-0.232 0.36-0.527 0.406-0.932l0.036-0.322 0.354-0.125c0.195-0.069 0.471-0.184 0.612-0.254l0.258-0.129 0.256 0.239c0.301 0.281 0.59 0.378 1.020 0.339 0.423-0.038 0.591-0.144 1.209-0.761 0.627-0.626 0.757-0.856 0.757-1.331 0-0.37-0.11-0.647-0.382-0.957l-0.185-0.211 0.173-0.376c0.095-0.206 0.202-0.475 0.238-0.596l0.065-0.221 0.327-0.035c0.602-0.065 1.029-0.361 1.236-0.855 0.113-0.271 0.109-1.823-0.005-2.097-0.191-0.458-0.619-0.756-1.155-0.804l-0.38-0.034-0.117-0.347c-0.085-0.247-0.17-0.45-0.267-0.646l0.015 0.033-0.135-0.267 0.187-0.213c0.271-0.308 0.385-0.589 0.386-0.949 0.002-0.392-0.097-0.626-0.425-1.004l-0.263-0.302-0.016-7.033c-0.015-6.503-0.024-7.056-0.11-7.352-0.341-1.175-1.203-2.093-2.177-2.317-0.37-0.085-24.688-0.067-25.034 0.019zM27.413 2.071c0.467 0.243 0.839 0.715 1.019 1.294 0.094 0.301 0.101 0.525 0.101 3.066v2.742h-27.36l0.001-2.706c0.001-2.808 0.008-2.917 0.231-3.432 0.121-0.28 0.477-0.709 0.704-0.85 0.446-0.276-0.277-0.262 12.824-0.25l12.24 0.012 0.24 0.124zM5.106 3.7c-0.841 0.353-1.303 1.080-1.256 1.979 0.028 0.519 0.183 0.887 0.524 1.242 0.769 0.801 1.956 0.881 2.757 0.187 0.607-0.525 0.864-1.359 0.649-2.103-0.154-0.532-0.58-1.018-1.111-1.266-0.434-0.203-1.132-0.22-1.563-0.039zM10.712 3.645c-1.183 0.438-1.711 1.662-1.199 2.781 0.142 0.31 0.566 0.769 0.844 0.913 0.275 0.147 0.602 0.234 0.949 0.234 0.92 0 1.699-0.609 1.954-1.445l0.004-0.014c0.118-0.397 0.073-0.992-0.105-1.38-0.177-0.388-0.594-0.806-0.986-0.989-0.249-0.116-0.397-0.145-0.786-0.157-0.305-0.009-0.551 0.012-0.675 0.058zM18.012 3.702c-0.836 0.345-1.303 1.079-1.254 1.971 0.037 0.681 0.31 1.172 0.864 1.552 0.511 0.351 0.467 0.347 3.928 0.348 2.774 0 3.154-0.010 3.387-0.088 0.645-0.216 1.14-0.721 1.337-1.357l0.004-0.015c0.116-0.391 0.072-0.992-0.1-1.368-0.177-0.388-0.605-0.82-0.99-1.001l-0.308-0.144-6.56-0.025-0.308 0.127zM6.275 4.728c0.466 0.221 0.644 0.854 0.372 1.318-0.389 0.664-1.412 0.577-1.684-0.143-0.157-0.415 0.036-0.955 0.412-1.154 0.246-0.129 0.652-0.139 0.9-0.021zM11.817 4.773c0.524 0.307 0.6 1.056 0.15 1.477-0.3 0.28-0.684 0.332-1.071 0.145-0.53-0.257-0.671-1.041-0.266-1.482 0.276-0.3 0.807-0.363 1.187-0.14zM24.83 4.773c0.654 0.383 0.56 1.407-0.153 1.677-0.208 0.078-6.053 0.078-6.26 0-0.184-0.070-0.427-0.294-0.528-0.487-0.201-0.384-0.013-0.979 0.379-1.201l0.212-0.12 6.124-0.002 0.226 0.133zM9.936 14.027c-0.084 0.044-0.154 0.106-0.205 0.182l-0.001 0.002c-0.138 0.21-1.368 5.401-1.335 5.629 0.074 0.5 0.797 0.586 0.985 0.117 0.087-0.216 1.287-5.281 1.287-5.432 0-0.005 0-0.010 0-0.015 0-0.29-0.235-0.525-0.525-0.525-0.075 0-0.145 0.016-0.21 0.043l0.003-0.001zM5.777 14.544c-0.164 0.093-1.925 2.034-2.040 2.25-0.063 0.116-0.070 0.513-0.013 0.658 0.077 0.195 1.98 2.27 2.127 2.32 0.050 0.017 0.107 0.027 0.166 0.027 0.183 0 0.345-0.095 0.437-0.239l0.001-0.002c0.209-0.343 0.172-0.41-0.85-1.55-0.416-0.464-0.75-0.865-0.741-0.891s0.354-0.426 0.767-0.89c0.916-1.029 0.951-1.079 0.907-1.312-0.040-0.249-0.253-0.436-0.51-0.436-0.092 0-0.179 0.024-0.254 0.067l0.003-0.001zM12.827 14.504c-0.185 0.078-0.312 0.257-0.312 0.467 0 0.071 0.015 0.139 0.041 0.201l-0.001-0.003c0.037 0.091 0.43 0.571 0.872 1.066l0.804 0.901-0.809 0.901c-0.445 0.496-0.839 0.973-0.876 1.061-0.084 0.197-0.041 0.38 0.127 0.548 0.161 0.162 0.338 0.198 0.542 0.112 0.195-0.082 2.025-2.113 2.13-2.364 0.137-0.327 0.054-0.536-0.43-1.088-1.696-1.935-1.717-1.953-2.088-1.801zM24.663 16.404c0.064 0.063 0.084 0.198 0.084 0.559 0 0.444 0.009 0.486 0.146 0.637 0.109 0.12 0.251 0.191 0.547 0.271 0.22 0.060 0.693 0.254 1.052 0.43 0.602 0.297 0.666 0.317 0.829 0.263 0.097-0.032 0.319-0.202 0.493-0.378 0.182-0.184 0.362-0.319 0.425-0.319 0.139 0 1.041 0.897 1.041 1.034 0 0.055-0.156 0.265-0.347 0.467-0.444 0.471-0.45 0.565-0.083 1.282 0.145 0.283 0.328 0.727 0.406 0.986 0.203 0.677 0.27 0.733 0.918 0.756 0.286 0.010 0.549 0.043 0.586 0.073 0.047 0.039 0.067 0.256 0.067 0.739 0 0.845-0.004 0.849-0.703 0.849-0.602 0-0.676 0.061-0.87 0.711-0.126 0.387-0.263 0.713-0.422 1.026l0.018-0.040c-0.367 0.717-0.361 0.811 0.083 1.282 0.191 0.202 0.347 0.413 0.347 0.469 0 0.132-0.904 1.032-1.037 1.032-0.056 0-0.263-0.156-0.46-0.346-0.469-0.453-0.574-0.463-1.213-0.117-0.274 0.142-0.603 0.283-0.943 0.4l-0.053 0.016c-0.751 0.248-0.794 0.299-0.819 0.971-0.011 0.269-0.044 0.52-0.074 0.556-0.038 0.047-0.255 0.067-0.734 0.067s-0.697-0.020-0.735-0.067c-0.030-0.036-0.063-0.298-0.073-0.582-0.017-0.457-0.034-0.531-0.147-0.652-0.072-0.076-0.259-0.173-0.427-0.221-0.48-0.13-0.898-0.302-1.288-0.518l0.029 0.015c-0.6-0.327-0.719-0.314-1.191 0.132-0.203 0.19-0.413 0.346-0.467 0.346-0.138 0-1.035-0.902-1.035-1.040 0-0.063 0.137-0.244 0.322-0.428 0.193-0.191 0.345-0.394 0.379-0.508 0.052-0.176 0.037-0.228-0.217-0.72-0.149-0.286-0.296-0.631-0.418-0.988l-0.017-0.056c-0.089-0.286-0.208-0.558-0.269-0.613-0.084-0.076-0.233-0.107-0.64-0.135-0.292-0.019-0.565-0.064-0.608-0.1-0.105-0.087-0.115-1.396-0.012-1.48 0.037-0.030 0.299-0.063 0.583-0.073 0.663-0.024 0.725-0.076 0.947-0.786 0.088-0.282 0.269-0.724 0.402-0.982 0.341-0.662 0.333-0.761-0.105-1.215-0.232-0.24-0.347-0.401-0.347-0.487 0-0.152 0.889-1.055 1.039-1.055 0.050 0 0.253 0.155 0.45 0.346 0.482 0.465 0.569 0.478 1.135 0.175 0.383-0.218 0.826-0.405 1.292-0.538l0.043-0.011c0.445-0.125 0.521-0.245 0.521-0.821 0-0.691 0.009-0.698 0.826-0.698 0.529 0 0.677 0.017 0.744 0.084zM23.097 19.549c-1.010 0.219-2.045 1.033-2.507 1.971-0.29 0.59-0.394 1.124-0.364 1.865 0.040 0.969 0.304 1.624 0.94 2.328 0.744 0.825 1.678 1.233 2.807 1.229 1.058-0.005 1.831-0.325 2.591-1.075 0.78-0.769 1.12-1.56 1.125-2.614 0.003-0.885-0.196-1.544-0.669-2.206-0.567-0.794-1.432-1.355-2.35-1.523-0.213-0.033-0.459-0.051-0.709-0.051-0.305 0-0.604 0.028-0.894 0.081l0.030-0.005zM24.666 20.615c0.84 0.219 1.582 0.935 1.843 1.777 0.142 0.461 0.141 1.158-0.003 1.624-0.452 1.462-2.072 2.237-3.535 1.69-0.753-0.281-1.406-1.006-1.608-1.784-0.094-0.36-0.107-1.008-0.026-1.356 0.209-0.911 1.019-1.726 1.943-1.957 0.374-0.093 1.014-0.091 1.386 0.006zM9.155 24.114c-0.166 0.096-0.263 0.399-0.195 0.606 0.184 0.557 1.013 0.419 1.013-0.169 0-0.303-0.197-0.498-0.5-0.496-0.004-0-0.009-0-0.014-0-0.109 0-0.214 0.022-0.309 0.061l0.005-0.002z"></path></svg>