<svg xmlns="http://www.w3.org/2000/svg" width="32" height="32"><path d="M25.637.885a.635.635 0 0 0-.17.386c-.062.488-.083.572-.206.837-.163.35-.574.756-.941.928l-.293.137-3.04.031c-3.35.034-3.255.025-3.947.387-.438.23-1.022.827-1.239 1.267-.315.641-.333.81-.334 3.182 0 1.226-.021 2.147-.048 2.147-.112 0-.8-.236-1.046-.359a13.56 13.56 0 0 1-.939-.579c-1.134-.753-1.968-1.12-3.108-1.367-.786-.171-2.372-.171-3.184-.002-1.547.325-2.837.985-3.925 2.009-1.285 1.21-2.069 2.697-2.406 4.564-.082.459-.091 1.082-.091 6.64 0 6.742-.014 6.428.323 7.289.437 1.115 1.456 2.143 2.539 2.561 1.365.528 2.852.422 4.048-.287.503-.298 1.209-.967 1.528-1.446.413-.621.574-1.139.842-2.704.159-.925.275-1.459.351-1.608.184-.361.601-.761.97-.931l.332-.154h8.694l.305.143c.167.079.421.252.564.386.452.423.516.598.783 2.158.269 1.572.43 2.088.843 2.71.319.479 1.025 1.148 1.528 1.446 1.241.736 2.88.822 4.204.222 1.067-.484 1.961-1.421 2.383-2.496.337-.861.323-.547.323-7.289 0-5.558-.009-6.181-.091-6.64-.337-1.867-1.121-3.354-2.406-4.564-1.088-1.024-2.378-1.684-3.925-2.009-.812-.169-2.398-.169-3.184.002-1.14.247-1.974.614-3.108 1.367-.37.245-.793.506-.939.579-.249.124-.935.359-1.049.359-.032 0-.045-.827-.035-2.2l.017-2.2.166-.347c.302-.631.825-1.021 1.499-1.119.199-.029 1.574-.053 3.055-.054 2.937-.002 2.967-.004 3.598-.316.624-.307 1.217-.971 1.468-1.641.125-.334.217-.938.175-1.154-.074-.392-.603-.553-.884-.271M10.405 9.003c.822.211 1.454.508 2.434 1.143.447.29.963.594 1.147.678 1.132.512 2.285.591 3.412.236.584-.184.825-.309 1.775-.923.964-.623 1.598-.921 2.422-1.138.578-.152.683-.163 1.605-.168 1.058-.005 1.436.048 2.313.325 2.062.649 3.781 2.408 4.382 4.481.295 1.017.291.93.291 7.51-.001 6.666.011 6.41-.321 7.077-.821 1.655-2.709 2.412-4.418 1.771-.932-.349-1.743-1.17-2.062-2.085-.069-.2-.224-.945-.343-1.656-.119-.711-.266-1.425-.326-1.586-.341-.91-1.221-1.669-2.169-1.87-.532-.113-8.562-.113-9.094 0-.948.201-1.828.96-2.169 1.87-.06.161-.207.875-.326 1.586-.236 1.409-.37 1.872-.667 2.319-.931 1.403-2.512 1.96-4.135 1.457-1.088-.337-2.07-1.449-2.287-2.59-.045-.233-.057-2.031-.044-6.587l.018-6.266.144-.546c.366-1.384.909-2.335 1.881-3.294A6.704 6.704 0 0 1 7.34 8.938c.656-.128.69-.13 1.593-.112.739.015.937.039 1.472.177m12.341 3.119a1.273 1.273 0 0 0-.69.794c-.101.34-.101.335 0 .677.167.56.73.955 1.282.898.487-.05.89-.34 1.07-.769.097-.231.091-.72-.011-.964-.259-.619-1.049-.924-1.651-.636m-14.356.753-.15.129-.016 1.098-.017 1.098h-.985c-1.113 0-1.291.04-1.438.324-.073.143-.079.208-.029.372.104.349.184.371 1.39.371h1.068v1.043c0 1.081.02 1.196.233 1.369.233.188.625.083.774-.209.038-.074.06-.496.06-1.16v-1.043h1.086c1.073 0 1.087-.002 1.224-.129.26-.241.243-.592-.037-.801-.135-.101-.234-.112-1.21-.127l-1.063-.016v-2.136l-.156-.155a.531.531 0 0 0-.734-.028m11.937 1.705a1.625 1.625 0 0 0-.393.244c-.56.471-.559 1.406.004 1.871.568.469 1.358.381 1.802-.201.391-.512.334-1.163-.141-1.624-.359-.348-.821-.453-1.272-.29m4.98.006c-.325.114-.697.545-.776.898-.054.24-.05.332.024.587.25.861 1.221 1.199 1.943.675.41-.296.61-.994.417-1.454a1.294 1.294 0 0 0-1.608-.706m-2.534 2.512c-.874.378-1.028 1.565-.278 2.137a1.224 1.224 0 0 0 1.613-.089c.267-.268.372-.522.371-.899-.003-.705-.538-1.237-1.237-1.232a1.502 1.502 0 0 0-.469.083" fill-rule="evenodd"></path></svg>