<svg xmlns="http://www.w3.org/2000/svg" width="32" height="32" viewBox="0 0 32 32"><path d="M10.674 1.682c-6.453 1.398-8.223 1.837-9.989 2.284l4.722-1.011c-0.062 0.024-0.074 0.884-0.073 5.537 0 6.521 0.027 7.132 0.379 8.615 0.090 0.378 0.428 1.441 0.549 1.725 0.027 0.062-0.732 1.021-2.741 3.462-1.528 1.857-2.759 3.393-2.736 3.413 0.035 0.030 3.442 1.132 4.237 1.37l0.249 0.075 1.191 2.050c0.655 1.128 1.205 2.051 1.223 2.051s1.046-1.297 2.286-2.883c1.703-2.176 2.277-2.875 2.341-2.85 0.047 0.018 0.888 0.491 1.869 1.052 0.981 0.56 1.809 1.019 1.841 1.019s0.883-0.472 1.891-1.049 1.84-1.049 1.85-1.049c0.010 0 1.031 1.296 2.27 2.88 1.238 1.584 2.265 2.88 2.282 2.88 0.018-0.001 0.569-0.924 1.226-2.052l1.194-2.051 0.272-0.082c1.336-0.399 4.217-1.364 4.207-1.409-0.007-0.031-1.22-1.527-2.696-3.324-0.251-0.28-1.142-1.364-2.028-2.453l-0.695-0.881c-0.022-0.036 0.068-0.384 0.199-0.773 0.255-0.759 0.349-1.119 0.528-2.041 0.111-0.576 0.114-0.71 0.131-6.92 0.010-3.484-0.001-6.334-0.024-6.334-0.024 0-2.404-0.564-5.29-1.253s-5.298-1.251-5.36-1.248c-0.062 0.003-2.449 0.565-5.305 1.25zM20.877 2.668c2.579 0.615 4.697 1.119 4.706 1.119 0.049 0 0.011 11.103-0.039 11.562-0.297 2.709-1.481 5.097-3.25 6.911l0.002-0.002c-0.552 0.583-1.165 1.1-1.83 1.544l-0.039 0.024c-0.586 0.391-4.308 2.538-4.4 2.538-0.081 0-3.766-2.115-4.347-2.495-1.74-1.136-3.101-2.695-4.055-4.642-0.558-1.1-0.952-2.381-1.111-3.733l-0.005-0.054c-0.064-0.558-0.078-11.651-0.016-11.657 0.022-0.002 2.164-0.514 4.76-1.139s4.768-1.127 4.827-1.116c0.059 0.011 2.217 0.524 4.797 1.14zM15.021 7.267c0.022 0.036 0.106 0.159 0.188 0.272l0.148 0.206-0.198 0.277-1.372 1.897-1.814 0.597c-0.997 0.329-1.82 0.602-1.829 0.608s0.489 0.708 1.107 1.56l1.122 1.55v1.897c0 1.344 0.017 1.896 0.059 1.896 0.032 0 0.836-0.252 1.785-0.56s1.76-0.56 1.8-0.56c0.041 0 0.856 0.252 1.812 0.56 0.955 0.308 1.763 0.56 1.794 0.56 0.039 0 0.057-0.59 0.057-1.899v-1.899l2.236-3.099-3.637-1.196-0.718-0.981c-0.394-0.539-0.754-1.033-0.798-1.099-0.075-0.11-0.069-0.133 0.076-0.32 0.086-0.11 0.174-0.231 0.195-0.267 0.031-0.053-0.185-0.067-1.007-0.067s-1.038 0.014-1.006 0.067zM16.872 9.819l0.756 1.032 1.236 0.401c0.68 0.221 1.252 0.418 1.271 0.438s-0.314 0.52-0.743 1.109l-0.779 1.073v1.357c0 0.747-0.007 1.358-0.017 1.358s-0.576-0.18-1.259-0.4-1.275-0.4-1.316-0.4c-0.040 0-0.583 0.164-1.207 0.366l-1.374 0.441v-2.706l-0.797-1.104-0.798-1.103 2.572-0.828 0.325-0.445c1.078-1.48 1.27-1.724 1.321-1.673 0.029 0.029 0.393 0.517 0.809 1.084zM7.813 21.631c0.8 1.088 1.834 2.119 2.82 2.811 0.26 0.182 0.518 0.367 0.573 0.411 0.095 0.076 0.007 0.2-1.643 2.308-1.153 1.472-1.758 2.205-1.785 2.16l-1.78-3.050-1.695-0.543c-0.974-0.294-1.545-0.486-2.112-0.687l0.395 0.122c-0.013-0.012 0.928-1.178 2.089-2.59l2.112-2.568 0.358 0.602c0.197 0.331 0.498 0.792 0.668 1.024zM27.362 22.611c1.142 1.39 2.066 2.539 2.053 2.551-0.012 0.013-0.785 0.268-1.717 0.566l-1.694 0.543-0.87 1.491c-0.479 0.82-0.888 1.521-0.911 1.558-0.027 0.044-0.619-0.672-1.737-2.102-0.933-1.193-1.707-2.199-1.721-2.234-0.015-0.038 0.22-0.202 0.574-0.4 0.406-0.229 0.57-0.346 0.511-0.367-0.067-0.024-0.012-0.093 0.231-0.289 0.47-0.38 1.198-1.113 1.664-1.673 0.442-0.531 1.128-1.539 1.327-1.949 0.068-0.14 0.144-0.247 0.168-0.239s0.979 1.153 2.122 2.544z"></path></svg>