<svg width="18" height="13" fill="none" xmlns="http://www.w3.org/2000/svg"><path d="M8.535.272C7.029.353 5.604.85 4.221 1.777 2.897 2.664 1.629 3.965.66 5.431c-.342.519-.448.854-.392 1.244.041.279.138.498.392.884 1.542 2.333 3.683 4.084 5.852 4.785 1.637.53 3.339.53 4.976 0 2.163-.699 4.312-2.456 5.846-4.777.26-.394.357-.611.398-.892.056-.39-.05-.725-.39-1.24a13.272 13.272 0 0 0-1.727-2.122C13.456 1.141 11.112.134 8.535.272m1.35 1.547c1.192.164 2.336.659 3.472 1.5.549.407 1.314 1.128 1.8 1.696.38.444 1.073 1.4 1.073 1.48 0 .044-.346.551-.641.94-.795 1.048-1.815 2.002-2.843 2.661-.642.411-1.563.806-2.261.969-.531.124-.876.161-1.485.161-.82 0-1.357-.089-2.145-.357-1.766-.599-3.541-2.07-4.882-4.042a2.284 2.284 0 0 1-.203-.332c0-.041.346-.554.602-.891.642-.85 1.47-1.683 2.263-2.278 1.067-.801 2.216-1.311 3.375-1.497a7.252 7.252 0 0 1 1.875-.01m-1.32 1.605a3.241 3.241 0 0 0-1.787.857c-.917.865-1.203 2.175-.735 3.365.262.665.831 1.272 1.506 1.606 1.277.632 2.799.376 3.762-.632.414-.433.624-.808.786-1.405.055-.2.066-.32.066-.72 0-.4-.011-.52-.066-.72a3.466 3.466 0 0 0-.295-.761c-.655-1.136-1.915-1.755-3.237-1.59m.977 1.553c.381.12.773.441.956.783.471.884.016 1.928-.988 2.269-.123.041-.252.056-.51.056-.377 0-.532-.038-.848-.203a1.895 1.895 0 0 1-.647-.646c-.5-.939.042-2.058 1.117-2.303a2.13 2.13 0 0 1 .92.044" fill-rule="evenodd" fill="#000"/></svg>