<svg xmlns="http://www.w3.org/2000/svg" width="32" height="32"><path d="M8 3.551c-.189.082-7.372 7.198-7.792 7.72-.2.249-.208.274-.208.656 0 .242.03.455.076.542.042.08.684.748 1.427 1.486 1.188 1.181 1.379 1.35 1.59 1.407.229.062.56.031.8-.075.057-.024.579.464 1.784 1.67l1.703 1.704-.654.673c-.808.83-.981 1.142-1.011 1.823-.015.34.006.512.093.773.274.823 1.147 1.483 1.962 1.483H8v.257c0 .61.401 1.301.972 1.676.387.254.579.314 1.13.353l.476.034.067.33c.215 1.056 1.335 1.804 2.433 1.622l.369-.061.303.274c.943.852 2.326.849 3.126-.006.277-.296.506-.743.55-1.072.02-.144.051-.204.098-.186.038.015.21.043.383.062 1.034.117 2.022-.591 2.267-1.626.05-.207.084-.264.145-.239.045.017.261.044.481.06.902.062 1.729-.479 2.076-1.362.061-.154.111-.338.111-.41 0-.119.014-.126.173-.091.352.079 1.013.036 1.322-.085.873-.342 1.425-1.339 1.275-2.302-.079-.51-.264-.837-.78-1.386l-.461-.49 1.755-1.756c1.242-1.243 1.779-1.746 1.836-1.722.044.02.192.06.329.091.499.11.563.066 2.061-1.423.743-.738 1.385-1.406 1.427-1.486.046-.087.076-.3.076-.542 0-.382-.008-.407-.208-.656-.114-.142-1.872-1.919-3.906-3.949-2.57-2.564-3.76-3.716-3.898-3.773a1.127 1.127 0 0 0-.868.02c-.137.064-.69.581-1.554 1.452-1.034 1.043-1.355 1.4-1.406 1.559-.078.244-.037.636.086.824.085.129.08.136-.36.575l-.446.446-.42-.134a4.576 4.576 0 0 0-2.481-.102c-.363.083-.426.083-.826.005-.971-.19-1.877-.161-2.741.09l-.432.125-.436-.438c-.429-.432-.434-.44-.35-.568.123-.187.164-.579.086-.823-.051-.159-.372-.516-1.406-1.559C9.57 4.15 9.017 3.633 8.88 3.569A1.171 1.171 0 0 0 8 3.551m2.773 3.355c0 .029-1.224 1.277-2.72 2.775-2.292 2.293-2.72 2.745-2.72 2.87 0 .326.236.566.558.568.207.001.252-.04 2.626-2.41l2.415-2.411.627.616c.369.363.688.632.773.652.098.024.25-.007.463-.093.43-.175.909-.286 1.418-.329l.427-.036-1.559 1.57c-1.701 1.714-1.779 1.818-1.888 2.516a2.09 2.09 0 0 0 .616 1.817c.497.486 1.094.689 1.795.611.604-.067.827-.222 2.021-1.407.603-.599 1.165-1.114 1.249-1.146a.505.505 0 0 1 .266-.025c.172.05 7.389 7.269 7.482 7.483.044.1.079.307.079.462 0 .73-.639 1.185-1.381.983-.224-.061-.379-.193-1.32-1.119-.773-.761-1.111-1.059-1.227-1.081-.212-.042-.513.106-.603.297-.138.29-.05.431.846 1.347.916.936.943.983.892 1.519-.065.673-.722 1.06-1.41.831-.222-.074-.43-.249-1.348-1.139-1.039-1.006-1.095-1.051-1.297-1.051-.371 0-.627.408-.46.734.033.064.414.477.846.917.863.877.937 1.001.896 1.5-.029.35-.227.628-.576.806-.278.142-.466.15-.851.036-.258-.077-.378-.177-1.292-1.079a40.41 40.41 0 0 0-1.072-1.035c-.109-.069-.408-.046-.543.043a.508.508 0 0 0-.169.617c.042.098.405.502.806.898s.776.809.832.918c.199.383.102 1.008-.2 1.28-.165.15-.476.256-.751.256-.278 0-.724-.187-.894-.375-.093-.103-.092-.111.013-.226.256-.28.441-.822.441-1.296a2.153 2.153 0 0 0-1.764-2.113l-.315-.055-.001-.301a2.128 2.128 0 0 0-.642-1.552c-.306-.306-.598-.474-.978-.561l-.26-.06-.006-.584c-.006-.538-.019-.611-.173-.931a2.257 2.257 0 0 0-1.033-1.033c-.294-.141-.421-.169-.832-.185l-.485-.018-1.829-1.83-1.829-1.829.119-.168c.266-.374.048-.857-.387-.857-.189 0-.251.04-.621.4-.226.22-.433.4-.46.4-.027 0-.571-.522-1.209-1.159l-1.161-1.16 3.72-3.72 3.72-3.72 1.16 1.159c.638.638 1.16 1.183 1.16 1.213m19.054 6.227c-.638.638-1.183 1.16-1.213 1.16-.029 0-1.265-1.212-2.748-2.693-2.668-2.666-2.697-2.693-2.91-2.693-.34 0-.597.31-.523.63.022.094.851.963 2.44 2.557l2.406 2.413-1.759 1.759-1.758 1.759-2.908-2.903c-3.231-3.226-3.126-3.139-3.814-3.139-.622 0-.742.08-2.023 1.348-.62.614-1.198 1.143-1.284 1.176a1.13 1.13 0 0 1-1.328-.445c-.188-.304-.214-.746-.062-1.049.132-.263 2.973-3.079 3.361-3.333.449-.293 1.085-.5 1.664-.541.926-.065 1.746.204 2.525.831.307.247.441.322.577.322.233.002.364-.074.463-.264.149-.289.107-.423-.233-.754l-.313-.304.331-.328.331-.329.201.119c.165.097.233.109.39.07a.534.534 0 0 0 .402-.536c-.004-.167-.061-.25-.41-.601-.223-.224-.405-.431-.405-.459 0-.029.522-.574 1.159-1.212l1.16-1.161 3.72 3.72 3.72 3.72-1.159 1.16M9.424 19.447c.424.341.558.86.341 1.326-.143.309-1.307 1.434-1.572 1.52a1.182 1.182 0 0 1-.962-.145c-.412-.291-.576-.888-.368-1.34.115-.251 1.22-1.366 1.46-1.474.122-.055.303-.077.541-.067.306.014.386.04.56.18m1.604 2.609c.58.242.855.898.603 1.437-.127.273-.823.957-1.083 1.065-.836.347-1.71-.473-1.426-1.338.085-.262.799-1.011 1.091-1.146.262-.121.553-.127.815-.018m2.279 2.6c.445.298.614.806.43 1.288-.152.399-.609.721-1.024.722-.181.001-.566-.153-.703-.281-.324-.302-.452-.932-.263-1.292.301-.574 1.044-.783 1.56-.437" fill-rule="evenodd"></path></svg>