<svg xmlns="http://www.w3.org/2000/svg" width="32" height="32" viewBox="0 0 32 32"><path d="M11.040 0.464c-2.881 0.299-5.414 1.597-7.287 3.537l-0.003 0.003c-0.515 0.513-0.977 1.080-1.376 1.692l-0.024 0.040c-1.092 1.63-1.789 3.608-1.913 5.74l-0.001 0.031c-0.114 2.259 0.291 4.173 1.297 6.131l0.39 0.758-0.741 2.678c-0.407 1.473-0.731 2.688-0.718 2.701 0.017 0.017 4.119-1.097 5.235-1.422 0.145-0.042 0.219-0.016 0.613 0.213 1.269 0.74 3.251 1.336 4.715 1.417 0.322 0.018 0.629 0.048 0.682 0.067 0.066 0.023 0.169 0.254 0.334 0.748 0.516 1.541 1.273 2.76 2.421 3.898 1.907 1.89 4.311 2.881 6.985 2.88 1.215-0.001 1.981-0.117 3.071-0.466 0.548-0.176 1.519-0.609 1.948-0.87l0.188-0.114 2.233 0.618c1.229 0.34 2.243 0.609 2.254 0.598 0.011-0.012-0.258-1.026-0.598-2.254l-0.619-2.233 0.114-0.187c0.451-0.743 0.959-2.056 1.145-2.959 0.271-1.321 0.259-3.010-0.032-4.237-0.815-3.439-3.251-6.123-6.559-7.23l-0.714-0.239-0.035-0.255c-0.019-0.14-0.061-0.519-0.094-0.841-0.185-1.834-0.919-3.826-1.966-5.334-2.010-2.894-5.067-4.724-8.503-5.091-0.484-0.052-2.023-0.063-2.442-0.018zM13.637 1.575c2.053 0.287 3.876 1.109 5.37 2.319l-0.020-0.016c0.512 0.413 1.431 1.365 1.825 1.89 1.033 1.373 1.755 3.036 2.030 4.846l0.008 0.060c0.11 0.75 0.111 2.326 0.001 3.079-0.606 4.084-3.438 7.38-7.202 8.647l-0.076 0.022c-1.005 0.345-2.163 0.545-3.368 0.545-2.017 0-3.903-0.559-5.512-1.529l0.048 0.027-0.519-0.305-2.018 0.559c-1.144 0.316-2.017 0.533-2.017 0.5 0.001-0.032 0.248-0.95 0.551-2.041l0.55-1.983-0.183-0.284c-0.314-0.487-0.896-1.721-1.095-2.321-0.615-1.857-0.69-4.076-0.203-5.997 0.991-3.837 3.955-6.799 7.719-7.771l0.075-0.016c0.337-0.085 0.853-0.188 1.146-0.228 0.738-0.1 2.126-0.101 2.891-0.002zM11.707 6.060c-1.196 0.186-2.303 1.127-2.664 2.264-0.068 0.209-0.119 0.453-0.145 0.705l-0.001 0.015-0.017 0.316h1.067l0.014-0.187c0.075-1.005 0.888-1.876 1.898-2.033 0.111-0.020 0.238-0.031 0.368-0.031 0.618 0 1.177 0.253 1.579 0.661l0 0c0.541 0.543 0.772 1.253 0.647 1.985-0.126 0.731-0.28 0.932-1.673 2.191l-1.091 0.986-0.005 1.080-0.004 1.080h1.067l0.004-1.68 0.986-0.897c1.13-1.028 1.439-1.417 1.66-2.085 0.193-0.587 0.207-1.469 0.030-2.031-0.316-1.009-1.211-1.912-2.2-2.218-0.342-0.106-1.186-0.174-1.52-0.122zM24.55 13.277c2.566 0.867 4.696 3.030 5.525 5.612 0.354 1.101 0.459 1.897 0.415 3.132-0.057 1.597-0.459 2.948-1.264 4.246-0.127 0.205-0.229 0.413-0.225 0.462s0.189 0.753 0.414 1.564c0.224 0.811 0.396 1.487 0.381 1.502s-0.694-0.156-1.508-0.381c-0.225-0.078-0.749-0.221-1.277-0.353l-0.287-0.061c-0.046-0.003-0.228 0.087-0.403 0.2-0.479 0.309-1.427 0.742-2.028 0.928-2.707 0.834-5.716 0.314-7.946-1.373-1.524-1.167-2.656-2.776-3.211-4.634l-0.016-0.064c0-0.022 0.298-0.080 0.661-0.129 2.228-0.315 4.207-1.198 5.841-2.496l-0.025 0.019c0.487-0.386 1.471-1.371 1.86-1.862 1.336-1.689 2.235-3.834 2.493-5.949 0.035-0.286 0.080-0.52 0.1-0.52s0.245 0.070 0.5 0.157zM11.265 17.88l0.015 0.92 1.893 0.029v-1.869h-1.922l0.014 0.92z"></path></svg>