<svg xmlns="http://www.w3.org/2000/svg" width="32" height="32"><path d="M.548.165a.894.894 0 0 0-.475.646C.055.925.935 5.445 2.582 13.702c1.396 6.993 2.538 12.753 2.537 12.8 0 .049-.141.162-.333.267-.447.245-.995.799-1.21 1.225-.264.524-.321.9-.322 2.136-.001.998.009 1.109.111 1.321a.834.834 0 0 0 .338.363l.226.133 12.076-.001 12.075-.001.209-.119a.914.914 0 0 0 .334-.354c.118-.225.124-.285.123-1.36-.001-1.257-.05-1.578-.326-2.126-.216-.43-.82-1.031-1.252-1.247l-.321-.16 2.549-12.77C30.797 6.786 31.945.978 31.945.902c.001-.076-.054-.243-.121-.371-.144-.271-.482-.478-.779-.477-.243.001-.582.192-.729.41-.09.133-.641 2.811-2.632 12.799-1.385 6.947-2.542 12.744-2.572 12.884l-.054.253H6.942l-.054-.253c-.03-.14-1.188-5.938-2.574-12.886C2.339 3.356 1.771.592 1.683.462 1.538.247 1.198.055.96.054c-.103 0-.288.05-.412.111m14.647 4.66c-1.869.306-3.425 1.61-4.026 3.374a4.69 4.69 0 0 0-.288 1.721c0 .641.146 1.354.394 1.932.105.245.192.46.192.477 0 .017-.174.163-.387.324a8.549 8.549 0 0 0-1.587 1.627c-.623.868-1.224 2.351-1.156 2.854.015.117.106.324.202.459 1.332 1.889 3.417 3.114 5.968 3.505.746.115 2.24.115 2.986 0 2.531-.388 4.697-1.654 5.953-3.476.264-.385.284-.624.102-1.226a7.132 7.132 0 0 0-1.185-2.329c-.336-.438-1.042-1.129-1.468-1.439-.399-.29-.399-.289-.196-.691.367-.727.524-2.088.344-2.976-.222-1.099-.621-1.866-1.379-2.651-1.127-1.17-2.866-1.748-4.469-1.485m1.552 1.797c.161.029.497.151.746.269 1.018.485 1.767 1.594 1.85 2.738a3.325 3.325 0 0 1-1.856 3.242c-.641.308-.968.377-1.629.344-1.204-.059-2.115-.608-2.753-1.655-.762-1.252-.544-2.965.509-4.01.872-.865 1.866-1.16 3.133-.928m-3.834 7.352c1.312 1.037 3.261 1.321 4.886.714.455-.171.94-.439 1.288-.714.148-.118.284-.214.302-.214.075 0 .716.495 1 .774.587.574 1.04 1.247 1.295 1.926.158.42.168.397-.41.972-.907.903-2.206 1.554-3.703 1.857-.679.137-2.463.137-3.142 0-1.521-.307-2.811-.961-3.729-1.889-.231-.234-.442-.463-.468-.509-.031-.056-.004-.197.081-.421.258-.678.711-1.349 1.296-1.921.315-.308.916-.785.993-.788.022 0 .163.095.311.213m13.368 14.322c.251.105.423.265.551.515.082.159.101.313.101.787v.589H5.067v-.589c0-.634.066-.858.328-1.102.318-.296-.359-.278 10.593-.281 8.995-.001 10.117.007 10.293.081" fill-rule="evenodd"></path></svg>