<svg xmlns="http://www.w3.org/2000/svg" width="32" height="32"><path d="M6.761.88a.715.715 0 0 0-.167.334c-.018.109-.033 3.084-.033 6.61l-.001 6.411-2.12.016-2.12.016-.358.18c-.869.436-1.378 1.405-1.213 2.313.097.533.276.841.814 1.397C3.022 19.665 14.197 30.645 14.43 30.8c.453.3 1.029.467 1.623.469.573.003.964-.091 1.467-.35.262-.136.721-.564 2.544-2.378 1.223-1.217 2.252-2.28 2.286-2.363.137-.331-.116-.685-.491-.685h-.226l-2.19 2.181c-2.345 2.334-2.433 2.406-3.05 2.505a2.18 2.18 0 0 1-1.193-.167c-.252-.122-.918-.764-5.68-5.477-6.371-6.305-7.599-7.544-7.659-7.726-.102-.308-.037-.777.143-1.033.32-.456.219-.439 2.903-.469 1.909-.022 2.395-.042 2.485-.102.275-.182.26.176.275-6.845l.015-6.547H24.64v6.494c0 6.075.006 6.505.093 6.68.152.304.227.313 2.574.318 2.08.003 2.109.005 2.317.123.323.183.524.507.552.886.042.585.09.524-2.317 2.943-2.176 2.187-2.206 2.22-2.206 2.433 0 .379.371.622.72.471.088-.038 1.147-1.062 2.353-2.275 2.375-2.391 2.396-2.417 2.525-3.126.165-.908-.344-1.877-1.213-2.313l-.358-.18-1.973-.027-1.974-.027-.026-6.595-.027-6.596-.129-.138-.13-.137H6.895L6.761.88m9.094 5.239c-.065.012-.179.094-.253.182-.132.156-.135.181-.135.971v.811l-.379.06c-1.04.163-2 1.043-2.23 2.044-.083.358-.07 1.522.019 1.859.132.493.349.862.745 1.264.67.679 1.08.818 2.565.87 1.011.035 1.08.045 1.333.177.321.169.613.464.782.79.115.222.125.303.125 1.093 0 .791-.009.871-.125 1.093-.24.462-.601.748-1.113.881-.221.057-.6.079-1.377.079-1.239 0-1.505-.052-1.845-.359-.271-.244-.361-.42-.427-.832-.08-.496-.33-.695-.714-.568-.282.093-.363.268-.334.72a2.11 2.11 0 0 0 .651 1.385c.501.489 1.138.72 1.99.721h.334v.749c0 .545.02.79.076.897.183.355.731.355.914 0 .056-.107.076-.352.076-.897v-.749l.227-.001c.35-.001.906-.136 1.249-.302.663-.322 1.296-1.095 1.453-1.777.083-.361.071-1.786-.018-2.12a2.644 2.644 0 0 0-1.055-1.52c-.631-.442-.779-.481-2.016-.525-.601-.021-1.181-.065-1.289-.098-.51-.156-1.049-.736-1.167-1.257-.034-.147-.053-.519-.042-.827.015-.459.041-.603.143-.8.168-.324.461-.62.782-.79.254-.135.311-.143 1.194-.16 1.031-.021 1.243.022 1.583.321.264.231.383.457.445.842.071.438.225.612.543.612.18 0 .247-.032.374-.173.19-.214.206-.53.051-1.029-.279-.896-1.122-1.553-2.097-1.635l-.36-.03V6.455l-.146-.156a.552.552 0 0 0-.532-.18" fill-rule="evenodd"></path></svg>