<svg xmlns="http://www.w3.org/2000/svg" width="32" height="32" viewBox="0 0 32 32"><path d="M3.613 3.613l-3.026 3.027 9.359 9.36-6.266 6.267-1.517 4.551c-0.835 2.503-1.489 4.541-1.454 4.528s2.068-0.69 4.518-1.504l4.453-1.48 6.32-6.308 9.387 9.386 6.053-6.053-9.386-9.387 9.386-9.387-6.053-6.053-9.387 9.386-9.36-9.359-3.027 3.026zM27.667 27.666l-2.28 2.28-4.693-4.692 1.624-1.626-0.344-0.348c-0.189-0.19-0.369-0.347-0.398-0.347-0.030 0-0.409 0.354-0.842 0.787l-0.788 0.786-1.892-1.892 0.813-0.815 0.814-0.814-0.749-0.743-1.625 1.624-1.894-1.891 1.626-1.629-0.772-0.772-1.628 1.626-1.892-1.894 1.625-1.625-0.372-0.374-0.371-0.374-1.629 1.626-1.892-1.892 0.786-0.787c0.432-0.434 0.786-0.811 0.786-0.839 0-0.069-0.649-0.721-0.718-0.721-0.030 0-0.408 0.354-0.842 0.786l-0.787 0.786-1.892-1.892 1.626-1.629-0.374-0.371-0.374-0.372-1.625 1.625-4.614-4.613 4.56-4.56 23.307 23.307-2.28 2.279zM27.667 4.387l2.253 2.254-1.894 1.892-4.532-4.533 0.932-0.933c0.513-0.514 0.945-0.934 0.96-0.934s1.042 1.015 2.281 2.254zM21.654 9.626l-2.987 2.987-0.947-0.946-0.946-0.947 5.972-5.973 1.894 1.892-2.986 2.987zM5.946 5.974l-0.37 0.373 1.329 1.333 0.388-0.386 0.388-0.385-0.653-0.655c-0.359-0.36-0.666-0.654-0.682-0.654s-0.196 0.168-0.4 0.374zM26.347 8.347l0.932 0.933-5.972 5.973-1.894-1.892 2.973-2.974c1.636-1.636 2.986-2.974 3.001-2.974s0.447 0.42 0.96 0.934zM11.681 17.734l0.932 0.934-5.226 5.199-0.015-0.947-0.014-0.947h-0.906c-0.506 0-0.905-0.021-0.905-0.048 0-0.053 5.116-5.125 5.169-5.125 0.017 0 0.452 0.42 0.965 0.934zM12.627 23.933l-2.627 2.628-0.015-0.907-0.014-0.907h-0.932c-0.513 0-0.932-0.018-0.932-0.040s1.181-1.222 2.626-2.667l2.626-2.626 1.895 1.892-2.627 2.627zM6.293 24.427v1.386h2.616l-0.014 0.836-0.015 0.835-3.25 1.084c-1.787 0.596-3.257 1.076-3.266 1.068-0.008-0.009 0.478-1.497 1.082-3.306l1.096-3.29h1.751v1.387zM24.719 24.747l-0.371 0.374 1.305 1.305 0.772-0.772-0.638-0.64c-0.351-0.353-0.652-0.641-0.668-0.641s-0.195 0.169-0.4 0.374z"></path></svg>