<svg xmlns="http://www.w3.org/2000/svg" width="32" height="32" viewBox="0 0 32 32"><path d="M9.712 1.474c0.018 0.013 0.037 0.025 0.055 0.038l16.209 11.107c0.469 0.321 0.904 0.619 1.238 0.896 0.349 0.289 0.759 0.69 0.996 1.276 0.313 0.775 0.313 1.645 0 2.42-0.236 0.586-0.647 0.987-0.996 1.276-0.334 0.277-0.769 0.575-1.238 0.896l-16.265 11.145c-0.573 0.393-1.089 0.746-1.526 0.99s-1.039 0.522-1.74 0.479c-0.897-0.055-1.726-0.511-2.268-1.247-0.424-0.576-0.532-1.244-0.577-1.754s-0.045-1.146-0.045-1.854v-22.212c0-0.023 0-0.046 0-0.068-0-0.708-0-1.345 0.045-1.854s0.153-1.178 0.577-1.754c0.542-0.737 1.371-1.192 2.268-1.247 0.701-0.043 1.302 0.236 1.74 0.479s0.953 0.597 1.526 0.99z"></path></svg>