<svg xmlns="http://www.w3.org/2000/svg" width="32" height="32"><path d="M15.493.128c-.146.037-.35.109-.453.161-.284.145-5.189 5.077-5.308 5.338-.319.697-.01 1.537.675 1.832.897.386 1.257.693 1.55 1.319.285.609.29 1.438.013 2.025-.204.43-.709.949-1.11 1.14-1.004.477-2.096.267-2.848-.55a2.166 2.166 0 0 1-.327-.472l-.225-.514c-.315-.725-1.188-1.01-1.904-.62-.179.097-1.032.914-2.719 2.604C-.006 15.239.08 15.127.08 16c0 .865-.056.79 2.504 3.36l2.204 2.213-.373.24c-.575.37-1.163 1.024-1.454 1.616-.353.72-.427 1.05-.425 1.904.002.746.036.935.276 1.547.336.859 1.156 1.743 2.004 2.159.708.348 1.051.426 1.877.426 1.244 0 2.035-.33 2.935-1.225.294-.293.595-.647.667-.786l.131-.252 2.213 2.209C15.21 31.976 15.134 31.92 16 31.92c.878 0 .755.094 3.659-2.816 1.704-1.708 2.543-2.586 2.609-2.731.324-.708-.01-1.569-.721-1.857-.567-.23-.815-.384-1.084-.675-.512-.553-.713-1.205-.616-1.999.062-.508.261-.891.682-1.313.567-.567 1.167-.772 2.003-.685.763.079 1.586.686 1.837 1.357.181.484.309.699.521.873a1.444 1.444 0 0 0 1.483.194c.144-.066 1.012-.894 2.655-2.53 1.343-1.337 2.505-2.521 2.581-2.631.288-.415.427-1.185.283-1.564-.043-.112-.037-.165.025-.233.072-.079-.14-.307-2.316-2.482l-2.395-2.395.277-.157c.448-.253 1.25-1.106 1.514-1.609.362-.694.469-1.152.467-2-.002-.746-.036-.935-.276-1.547-.318-.812-1.132-1.713-1.918-2.122-.675-.351-1.145-.461-1.963-.461-1.001 0-1.625.193-2.402.744-.402.285-.988.902-1.187 1.249l-.151.265-2.13-2.133C18.265 1.489 17.191.455 17.05.364c-.438-.283-1.013-.37-1.557-.236m3.011 4.103c1.63 1.623 2.5 2.45 2.643 2.516.706.326 1.569-.009 1.857-.72.328-.809.678-1.215 1.294-1.504.612-.286 1.437-.29 2.034-.009.409.192.963.747 1.156 1.157.276.588.272 1.426-.01 2.028-.29.619-.695.969-1.505 1.297-.711.288-1.046 1.151-.72 1.857.066.143.893 1.013 2.516 2.643 1.33 1.336 2.418 2.463 2.418 2.505 0 .042-.952 1.029-2.115 2.193l-2.115 2.117-.209-.324a4.35 4.35 0 0 0-2.425-1.811c-.597-.171-1.626-.17-2.227.002a4.287 4.287 0 0 0-2.088 1.353c-.36.42-.583.817-.776 1.379-.164.475-.174.547-.176 1.277-.002.666.015.828.122 1.173.298.952.946 1.822 1.751 2.348l.381.25-2.116 2.114c-1.165 1.163-2.152 2.115-2.194 2.115-.042 0-1.157-1.078-2.478-2.395-1.624-1.619-2.478-2.432-2.635-2.511-.71-.355-1.56-.06-1.867.646l-.225.514a2.166 2.166 0 0 1-.327.472c-.741.805-1.838 1.025-2.815.566-.392-.184-.951-.748-1.139-1.147-.281-.597-.277-1.422.009-2.034.289-.616.695-.966 1.504-1.294.711-.288 1.046-1.151.72-1.857-.066-.143-.893-1.013-2.516-2.643-1.33-1.336-2.418-2.463-2.418-2.505 0-.042.951-1.028 2.114-2.192l2.113-2.116.261.39a4.397 4.397 0 0 0 2.366 1.742c.616.178 1.691.177 2.266-.002 1.429-.446 2.442-1.459 2.888-2.888.179-.575.18-1.65.002-2.266a4.377 4.377 0 0 0-1.747-2.366l-.39-.256 2.119-2.116c1.165-1.164 2.152-2.116 2.194-2.116.042 0 1.169 1.088 2.505 2.418" fill-rule="evenodd"></path></svg>