<svg xmlns="http://www.w3.org/2000/svg" width="76" height="64" fill="none"><path d="M.584.348C.623.54 3.803 14.918 7.65 32.3l6.995 31.603 11.868.033 11.867.032-.006-.286c-.003-.157-1.585-14.535-3.516-31.952L31.348.063 15.93.031.513-.001l.071.349m36.81-.063c.031.157 3.213 14.549 7.072 31.983l7.016 31.699h23.787l-.077-.539c-.042-.296-1.616-14.503-3.497-31.571C69.813 14.788 68.242.638 68.204.412L68.135 0H37.337l.057.285m-7.823 2.153c.102.606 6.529 58.913 6.529 59.231v.271H16.268L9.707 32.268C6.099 15.949 3.117 2.468 3.08 2.312l-.067-.285H29.502l.069.411m36.802-.332c0 .043 1.482 13.47 3.294 29.838 1.811 16.368 3.293 29.813 3.293 29.878 0 .072-3.884.118-9.93.118h-9.929l-.069-.285C52.742 60.456 39.9 2.291 39.9 2.176c0-.114 3.176-.149 13.237-.149 7.28 0 13.236.035 13.236.079" fill-rule="evenodd" fill="#000"></path></svg>