<svg xmlns="http://www.w3.org/2000/svg" width="32" height="32" viewBox="0 0 32 32"><path d="M31.040 26.56l-4.48-4.48c1.44-2.24 2.24-4.8 2.24-7.68 0-8-6.4-14.4-14.4-14.4s-14.4 6.4-14.4 14.4c0 8 6.4 14.4 14.4 14.4 2.88 0 5.44-0.8 7.68-2.24l4.48 4.48c1.28 1.28 3.2 1.28 4.48 0s1.28-3.2 0-4.48zM14.4 25.6c-6.24 0-11.2-4.96-11.2-11.2s4.96-11.2 11.2-11.2c6.24 0 11.2 4.96 11.2 11.2s-5.12 11.2-11.2 11.2z"></path><path d="M20.799 12.799h-4.8v-4.8c0-0.96-0.64-1.6-1.6-1.6s-1.6 0.8-1.6 1.6v4.8h-4.8c-0.8 0-1.6 0.64-1.6 1.6s0.64 1.6 1.6 1.6h4.8v4.8c0 0.96 0.64 1.6 1.6 1.6s1.6-0.64 1.6-1.6v-4.8h4.8c0.96 0 1.6-0.64 1.6-1.6s-0.8-1.6-1.6-1.6z"></path></svg>