<svg xmlns="http://www.w3.org/2000/svg" width="32" height="32"><path d="M20.813.141c-.095.047-.671.612-1.28 1.254-.955 1.009-1.123 1.165-1.231 1.138-1.426-.353-3.153-.486-4.477-.344-3.649.389-6.527 2.404-8.331 5.832-1.1 2.09-1.794 4.831-2.024 7.985-.066.913.012 1.199.389 1.427.092.056.964.442 1.936.858l1.769.757.036.329c.029.262.361 2.004.492 2.583l.027.12h-.798c-.74 0-.812.009-.98.12a1.119 1.119 0 0 0-.301.358c-.116.23-.12.288-.12 1.747v1.508h-.913c-.843 0-.928.009-1.122.118a1.074 1.074 0 0 0-.328.307c-.115.185-.117.227-.133 2.455-.01 1.247-.002 2.37.016 2.496.04.268.285.577.544.686.143.059 2.024.072 10.98.072 12.035 0 11.017.032 11.319-.364l.144-.188v-2.52c0-2.463-.003-2.524-.11-2.668-.263-.352-.313-.365-1.387-.384l-.983-.016v-1.55c0-1.474-.006-1.559-.112-1.748-.203-.362-.326-.399-1.408-.429l-.96-.027-.027-1.282c-.022-1.058-.042-1.306-.113-1.414-.047-.071-.604-.857-1.237-1.745-1.282-1.796-1.358-1.95-1.211-2.461a1.197 1.197 0 0 1 1.141-.858c.263 0 .56.105 2.446.866l2.147.865.56.001c.495.002.595-.015.86-.139.165-.077.403-.233.529-.347.336-.301 1.699-2.024 1.814-2.293.349-.814.196-1.695-.41-2.366l-2.684-2.96a3401.498 3401.498 0 0 1-2.518-2.778c-.08-.09-.155-.516-.39-2.24-.236-1.72-.315-2.175-.413-2.368a.87.87 0 0 0-1.148-.393m-.049 4.18c.107.764.224 1.445.262 1.515.037.069 1.101 1.263 2.364 2.652l2.84 3.125c.416.458.543.634.543.748 0 .201-1.354 1.897-1.535 1.923-.068.01-1.078-.364-2.267-.838-2.387-.952-2.592-1.008-3.307-.91-.921.126-1.638.578-2.149 1.357-.529.807-.589 1.98-.146 2.884.072.148.622.957 1.221 1.797l1.09 1.528V22.027l-4.865-.013L9.949 22l-.145-.587a19.252 19.252 0 0 1-.598-4.8c-.006-2.442.353-4.212 1.213-5.973 1.447-2.964 4.062-4.959 7.935-6.053.412-.117.804-.255.87-.306.066-.052.381-.375.701-.718.32-.344.596-.626.614-.627.017-.001.119.622.225 1.385M14.4 4.219c-2.548 1.345-4.469 3.29-5.603 5.674-.906 1.903-1.383 4.09-1.384 6.334 0 .432-.018.786-.039.786-.022 0-.502-.197-1.067-.439l-1.027-.439v-.241c0-.133.036-.553.08-.934.487-4.207 1.88-7.309 4.107-9.144 1.433-1.181 3.331-1.869 5.28-1.915l.266-.006-.613.324m4.853 4.054c-.473.188-.689.836-.436 1.309.094.176.367.382.596.451.628.188 1.315-.499 1.127-1.127-.075-.247-.281-.506-.49-.615-.171-.088-.596-.098-.797-.018m2.934 16.554v.986H7.733V23.84h14.454v.987m2.506 4.053v1.307H5.227v-2.614h19.466v1.307" fill-rule="evenodd"></path></svg>