<svg xmlns="http://www.w3.org/2000/svg" width="32" height="32"><path d="M.524.161a1.112 1.112 0 0 0-.32.278L.08.613.064 3.467C.052 5.488.065 6.382.108 6.533c.052.182.742.895 4.683 4.841l4.621 4.627-1.317 1.317-1.318 1.318-.444-.434c-.341-.333-.49-.442-.645-.471-.696-.13-1.206.38-1.077 1.079.032.174.197.363 1.138 1.31l1.101 1.106-3.174 3.187C.264 27.838.329 27.763.134 28.514c-.168.642-.059 1.469.267 2.026.211.362.654.813 1.01 1.028a2.842 2.842 0 0 0 2.075.298c.751-.195.676-.13 4.101-3.542l3.187-3.174 1.106 1.101c.947.941 1.136 1.106 1.31 1.138.699.129 1.209-.381 1.079-1.077-.029-.155-.138-.304-.471-.645l-.434-.444 1.318-1.318L16 22.587l1.318 1.318 1.318 1.318-.434.444c-.333.341-.442.49-.471.645-.13.696.38 1.206 1.079 1.077.174-.032.363-.197 1.31-1.138l1.107-1.101 3.16 3.148c3.391 3.38 3.387 3.375 4.122 3.567.65.169 1.483.058 2.033-.271 1.311-.786 1.762-2.298 1.1-3.692-.122-.257-.615-.775-3.318-3.489l-3.174-3.187 1.101-1.106c.941-.947 1.106-1.136 1.138-1.31.129-.699-.381-1.209-1.077-1.079-.155.029-.304.138-.645.471l-.444.434-1.318-1.318L22.587 16l1.147-1.16c.63-.638 2.722-2.744 4.649-4.68 2.998-3.012 3.508-3.547 3.536-3.707.018-.102.025-1.458.017-3.013L31.92.613l-.124-.174a1.093 1.093 0 0 0-.332-.28c-.198-.101-.322-.106-3.037-.106-2.43 0-2.859.012-3.029.083-.139.057-1.573 1.456-4.798 4.679L16 9.412l-4.6-4.597C8.175 1.592 6.741.193 6.602.136c-.171-.071-.597-.082-3.04-.08C.855.058.711.063.524.161m14.369 10.706 9.053 9.053-2.013 2.013-2.013 2.014-9.053-9.054L1.813 5.84V1.813H5.84l9.053 9.054m15.294-7.04V5.84l-4.44 4.44-4.44 4.44-2.014-2.013-2.013-2.013 4.44-4.44 4.44-4.441H30.187v2.014M13.4 22.626l-1.319 1.321-2.014-2.013-2.014-2.013 1.32-1.321 1.32-1.32 2.013 2.013 2.014 2.013-1.32 1.32m-4.573.574.691.693-.691.694-.692.693-.708-.706-.707-.706.679-.681c.374-.374.692-.68.708-.68.015 0 .339.312.72.693m15.774-.013.679.681-.707.706-.708.706-.692-.693-.691-.694.691-.693c.381-.381.705-.693.72-.693.016 0 .334.306.708.68M6.173 25.826c.359.359.654.676.654.706 0 .07-1.289 1.361-1.359 1.361-.07 0-1.361-1.288-1.361-1.358 0-.07 1.288-1.362 1.358-1.362.029 0 .348.294.708.653m21.066 0c.36.359.654.676.654.706 0 .07-1.288 1.361-1.358 1.361-.07 0-1.362-1.288-1.362-1.358 0-.07 1.289-1.362 1.359-1.362.029 0 .347.294.707.653m-23.28 3.632c-.438.453-.74.666-.996.704a.96.96 0 0 1-1.112-.962c0-.355.112-.558.568-1.028l.376-.389.709.707.708.707-.253.261m26.056-.767c.316.532.098 1.171-.481 1.413-.432.181-.732.072-1.305-.471l-.449-.425.709-.71.709-.711.338.333c.186.183.402.44.479.571" fill-rule="evenodd"></path></svg>