<svg xmlns="http://www.w3.org/2000/svg" width="512" height="512"><g transform="translate(0 0)"><g class="nc-icon-wrapper" fill="#000000"><path d="M454.781 288.969c-12.781-3.75-26.062 3.593-29.75 16.312C403.312 379.906 333.781 432 256 432c-66.525 0-126.738-38.281-156.436-96H200c13.25 0 24-10.75 24-24s-10.75-24-24-24H40c-13.25 0-24 10.75-24 24v160c0 13.25 10.75 24 24 24s24-10.75 24-24V369.883C103.736 436.426 176.133 480 256 480c99 0 187.469-66.312 215.094-161.281 3.718-12.75-3.594-26.063-16.313-29.75zM472.062 16c-13.25 0-24 10.75-24 24v102.07C408.314 75.555 335.912 32 256.062 32c-99 0-187.468 66.312-215.093 161.281-3.719 12.75 3.593 26.063 16.312 29.75 12.844 3.782 26.094-3.625 29.75-16.312C108.75 132.094 178.281 80 256.062 80c66.526 0 126.764 38.281 156.465 96H312.062c-13.25 0-24 10.75-24 24s10.75 24 24 24h160c13.25 0 24-10.75 24-24V40c0-13.25-10.75-24-24-24z"></path></g></g></svg>