<svg xmlns="http://www.w3.org/2000/svg" width="512" height="512" viewBox="0 0 512 512"><title>grid-2</title><g fill="#000000"><path d="M176 288H48c-26.51 0-48 21.49-48 48v128c0 26.51 21.49 48 48 48h128c26.51 0 48-21.49 48-48V336c0-26.51-21.49-48-48-48zm0 176H48V336h128v128zm0-464H48C21.49 0 0 21.49 0 48v128c0 26.51 21.49 48 48 48h128c26.51 0 48-21.49 48-48V48c0-26.51-21.49-48-48-48zm0 176H48V48h128v128zm288 112H336c-26.51 0-48 21.49-48 48v128c0 26.51 21.49 48 48 48h128c26.51 0 48-21.49 48-48V336c0-26.51-21.49-48-48-48zm0 176H336V336h128v128zm0-464H336c-26.51 0-48 21.49-48 48v128c0 26.51 21.49 48 48 48h128c26.51 0 48-21.49 48-48V48c0-26.51-21.49-48-48-48zm0 176H336V48h128v128z"></path></g></svg>