<svg xmlns="http://www.w3.org/2000/svg" width="512" height="512"><g transform="translate(0 0)"><g class="nc-icon-wrapper" fill="#000000"><path d="M462.969 62.859C438.777 41.92 408.871 31.998 378.724 32c-37.488 0-75.345 15.344-103.031 43.924l-19.685 20.324-19.688-20.324C208.633 47.34 170.783 32 133.291 32c-30.143 0-60.061 9.926-84.25 30.861-62.145 53.791-65.238 149.655-9.217 207.623l193.15 199.711c6.321 6.537 14.653 9.805 22.987 9.805 8.332 0 16.664-3.268 22.986-9.805l193.149-199.711c56.115-57.968 53.021-153.836-9.127-207.625zm-25.375 174.256L255.961 424.918 74.34 237.129c-32.242-33.364-39.881-98.158 6.115-137.975 39.904-34.539 94.592-17.495 121.387 10.166l54.166 55.918 54.164-55.918c26.418-27.273 81.261-44.893 121.385-10.168 45.566 39.438 38.961 103.949 6.037 137.963z"></path></g></g></svg>