<svg xmlns="http://www.w3.org/2000/svg" width="512" height="512" viewBox="0 0 512 512"><title>list</title><g fill="#000000"><path d="M80 208H16c-8.875 0-16 7.125-16 16v64c0 8.875 7.125 16 16 16h64c8.875 0 16-7.125 16-16v-64c0-8.875-7.125-16-16-16zm0 160H16c-8.875 0-16 7.125-16 16v64c0 8.875 7.125 16 16 16h64c8.875 0 16-7.125 16-16v-64c0-8.875-7.125-16-16-16zm0-320H16C7.125 48 0 55.125 0 64v64c0 8.875 7.125 16 16 16h64c8.875 0 16-7.125 16-16V64c0-8.875-7.125-16-16-16zm408 184H184c-13.255 0-24 10.745-24 24s10.745 24 24 24h304c13.255 0 24-10.745 24-24s-10.745-24-24-24zm0-160H184c-13.255 0-24 10.745-24 24s10.745 24 24 24h304c13.255 0 24-10.745 24-24s-10.745-24-24-24zm0 320H184c-13.255 0-24 10.745-24 24s10.745 24 24 24h304c13.255 0 24-10.745 24-24s-10.745-24-24-24z"></path></g></svg>