<svg xmlns="http://www.w3.org/2000/svg" width="32" height="32" viewBox="0 0 32 32"><title>office</title><path d="M28.921 23.859c-0.25 0.003-0.222-0.009-0.555 0.014v-7.77c0-0.832-0.677-1.508-1.508-1.508h-3.807c-0.002 0-0.004-0-0.006-0h-4.385v-11.705l3.596 3.476c0.203 0.197 0.32 0.471 0.32 0.754v5.735c0 0.259 0.21 0.469 0.469 0.469s0.469-0.21 0.469-0.469v-5.735c0-0.535-0.221-1.056-0.606-1.428l-4.391-4.244c-0.099-0.093-0.288-0.176-0.475-0.107l-7.876 2.647v-1.825c0.006-0.797-0.71-1.492-1.542-1.443-0.796 0-1.444 0.647-1.444 1.443v2.829l-2.061 0.693c-0.809 0.272-1.353 1.029-1.353 1.883v16.295c-2.086 0.053-3.767 1.766-3.767 3.864v2.384c0 0.647 0.526 1.173 1.173 1.173h29.653c0.647 0 1.173-0.526 1.173-1.173v-3.172c0-1.697-1.381-3.079-3.079-3.079zM28.921 24.796c1.181 0 2.141 0.96 2.141 2.141v0.492h-4.547v-0.492c0.001-1.281 1.127-2.252 2.406-2.141zM27.429 16.103v8.012c-1.088 0.475-1.851 1.561-1.851 2.823v0.492h-6.917v-11.897h8.198c0.315 0 0.571 0.256 0.571 0.571zM8.118 2.162c0-0.279 0.227-0.506 0.506-0.506 0.251-0.037 0.588 0.16 0.604 0.506v2.14l-1.111 0.373v-2.513zM3.767 24.798v2.631h-2.814c0.146-1.444 1.345-2.582 2.814-2.631zM0.938 30.109v-1.743h2.829v1.979h-2.593c-0.13 0-0.236-0.106-0.236-0.236zM4.704 7.566c0-0.451 0.287-0.85 0.715-0.994l12.305-4.136v2.554l-10.223 3.436c-0.245 0.082-0.377 0.348-0.295 0.594 0.066 0.196 0.248 0.319 0.444 0.319 0.049 0 0.1-0.008 0.149-0.025l9.925-3.336v2.385l-10.223 3.436c-0.245 0.083-0.377 0.348-0.295 0.594 0.066 0.196 0.248 0.319 0.444 0.319 0.049 0 0.1-0.008 0.149-0.025l9.925-3.336v2.385l-10.223 3.436c-0.245 0.082-0.377 0.348-0.295 0.594 0.066 0.196 0.248 0.32 0.444 0.32 0.049 0 0.1-0.008 0.149-0.025l9.925-3.336v2.335c0 0.001-0 0.001-0 0.002v0.048l-10.223 3.436c-0.245 0.082-0.377 0.348-0.295 0.594 0.066 0.196 0.248 0.32 0.444 0.32 0.049 0 0.1-0.008 0.149-0.025l9.924-3.336v2.385l-6.384 2.146c-0.245 0.082-0.377 0.348-0.295 0.594 0.066 0.196 0.248 0.32 0.444 0.32 0.050 0 0.1-0.008 0.149-0.025l6.085-2.045v10.871h-4.050v-4.871c0-0.319-0.146-0.613-0.4-0.806s-0.577-0.255-0.884-0.169l-4.363 1.218c-0.498 0.139-0.846 0.597-0.846 1.114v3.513h-2.477v-22.779zM8.118 26.832c0-0.098 0.066-0.185 0.16-0.211l1.68-0.469v4.194h-1.84l0-3.513zM10.896 30.345v-4.455l1.746-0.487c0.024-0.007 0.046-0.002 0.065 0.012s0.030 0.035 0.030 0.059v4.871h-1.84zM18.661 30.345v-1.979h6.917v1.979h-6.917zM31.063 30.109c0 0.13-0.106 0.236-0.236 0.236h-4.311v-1.979h4.547v1.743z"></path><path d="M7.649 22.835c0.049 0 0.1-0.008 0.149-0.025l1.74-0.585c0.245-0.082 0.377-0.348 0.295-0.594s-0.348-0.378-0.594-0.295l-1.74 0.585c-0.245 0.082-0.377 0.348-0.295 0.594 0.066 0.196 0.248 0.32 0.444 0.32z"></path><path d="M20.714 19.399h4.597c0.436 0 0.791-0.355 0.791-0.79v-1.128c0-0.436-0.355-0.791-0.791-0.791h-4.597c-0.436 0-0.791 0.355-0.791 0.791v1.128c0 0.436 0.355 0.79 0.791 0.79zM20.861 17.627h4.303v0.834h-4.303v-0.834z"></path><path d="M20.714 22.963h4.597c0.436 0 0.791-0.355 0.791-0.791v-1.128c0-0.436-0.355-0.79-0.791-0.79h-4.597c-0.436 0-0.791 0.355-0.791 0.79v1.128c0 0.436 0.355 0.791 0.791 0.791zM20.861 21.191h4.303v0.834h-4.303v-0.834z"></path><path d="M20.714 26.564h1.52c0.436 0 0.791-0.355 0.791-0.79v-1.128c0-0.436-0.355-0.791-0.791-0.791h-1.52c-0.436 0-0.791 0.355-0.791 0.791v1.128c0 0.436 0.355 0.79 0.791 0.79zM20.861 24.792h1.227v0.834h-1.227v-0.834z"></path></svg>